<?xml version="1.0" standalone="no"?>
<!DOCTYPE svg PUBLIC "-//W3C//DTD SVG 20010904//EN"
 "http://www.w3.org/TR/2001/REC-SVG-20010904/DTD/svg10.dtd">
<svg version="1.0" xmlns="http://www.w3.org/2000/svg"
 width="512.000000pt" height="512.000000pt" viewBox="0 0 512.000000 512.000000"
 preserveAspectRatio="xMidYMid meet">

<g transform="translate(0.000000,512.000000) scale(0.100000,-0.100000)"
fill="#000000" stroke="none">
<path d="M1039 4805 c-335 -61 -628 -313 -737 -630 -45 -133 -52 -199 -52
-495 l0 -280 -25 0 -26 0 3 -1202 3 -1203 26 -95 c98 -354 364 -616 722 -713
l82 -22 1490 -3 c1049 -2 1514 0 1570 8 393 54 703 320 819 700 14 47 30 126
36 175 6 59 7 457 3 1153 -5 876 -9 1062 -20 1062 -8 0 -13 12 -13 35 0 30 -3
35 -24 35 l-25 0 -4 348 c-3 310 -6 354 -24 417 -49 172 -125 305 -242 428
-123 128 -274 217 -460 270 l-76 22 -1475 2 c-1221 1 -1488 -1 -1551 -12z
m707 -867 c16 -12 184 -173 374 -358 190 -185 358 -346 374 -358 19 -15 43
-22 72 -22 55 0 41 -13 456 397 180 178 342 332 360 343 35 21 91 26 131 11
29 -11 327 -298 399 -384 46 -55 48 -61 48 -117 l0 -60 -357 -366 c-197 -201
-368 -383 -380 -403 -29 -46 -29 -76 0 -123 12 -20 173 -191 357 -380 185
-188 346 -356 358 -372 25 -32 30 -111 10 -149 -20 -39 -135 -162 -279 -298
l-141 -133 -62 -4 c-55 -4 -64 -1 -97 25 -20 16 -188 177 -373 358 -185 182
-354 340 -374 352 -47 29 -77 29 -124 0 -20 -12 -201 -183 -403 -380 l-366
-357 -59 0 c-56 0 -62 3 -117 48 -86 72 -373 370 -384 399 -15 40 -10 96 11
131 11 18 165 180 343 360 410 415 397 401 397 456 0 29 -7 53 -22 72 -12 16
-173 184 -358 374 -185 190 -346 358 -358 374 -16 20 -22 43 -22 76 0 41 6 56
39 97 56 70 385 391 413 402 43 18 103 12 134 -11z"/>
</g>
</svg>
