<?xml version="1.0" standalone="no"?>
<!DOCTYPE svg PUBLIC "-//W3C//DTD SVG 20010904//EN"
 "http://www.w3.org/TR/2001/REC-SVG-20010904/DTD/svg10.dtd">
<svg version="1.0" xmlns="http://www.w3.org/2000/svg"
 width="4096.000000pt" height="4096.000000pt" viewBox="0 0 4096.000000 4096.000000"
 preserveAspectRatio="xMidYMid meet">

<g transform="translate(0.000000,4096.000000) scale(0.100000,-0.100000)"
fill="#000000" stroke="none">
<path d="M19889 40740 c-412 -13 -1054 -54 -1354 -85 -500 -52 -709 -78 -1060
-131 -2730 -410 -5332 -1369 -7680 -2833 -1833 -1142 -3483 -2579 -4875 -4246
-1269 -1520 -2305 -3207 -3081 -5017 -881 -2056 -1413 -4247 -1574 -6483 -79
-1098 -68 -2207 31 -3305 355 -3941 1866 -7685 4358 -10800 1437 -1796 3189
-3354 5141 -4571 1708 -1066 3576 -1873 5520 -2388 3114 -824 6441 -887 9595
-180 2772 622 5379 1824 7675 3539 2024 1512 3772 3413 5106 5555 1158 1857
2004 3882 2508 6000 730 3064 731 6285 4 9355 -498 2104 -1349 4147 -2496
5990 -1273 2046 -2899 3854 -4802 5336 -3228 2515 -7107 3984 -11180 4234
-527 32 -1349 45 -1836 30z m1351 -2841 c2646 -113 5246 -836 7560 -2102 2207
-1208 4121 -2864 5626 -4867 1938 -2579 3116 -5623 3413 -8815 86 -924 99
-1908 35 -2840 -217 -3212 -1322 -6292 -3202 -8925 -418 -585 -885 -1158
-1411 -1730 -161 -174 -747 -760 -921 -921 -1195 -1099 -2432 -1970 -3835
-2701 -132 -69 -283 -146 -335 -171 -52 -24 -158 -75 -235 -112 -1780 -855
-3844 -1418 -5865 -1599 -907 -82 -1878 -92 -2785 -31 -3022 206 -5928 1195
-8450 2878 -1244 831 -2386 1825 -3380 2942 -1330 1494 -2404 3223 -3150 5070
-1064 2635 -1463 5492 -1164 8340 272 2596 1138 5108 2532 7345 1414 2270
3356 4211 5627 5627 2557 1594 5455 2489 8455 2613 484 20 1008 20 1485 -1z"/>
</g>
</svg>
