<?xml version="1.0" standalone="no"?>
<!DOCTYPE svg PUBLIC "-//W3C//DTD SVG 20010904//EN"
 "http://www.w3.org/TR/2001/REC-SVG-20010904/DTD/svg10.dtd">
<svg version="1.0" xmlns="http://www.w3.org/2000/svg"
 width="4096.000000pt" height="4096.000000pt" viewBox="0 0 4096.000000 4096.000000"
 preserveAspectRatio="xMidYMid meet">

<g transform="translate(0.000000,4096.000000) scale(0.100000,-0.100000)"
fill="#000000" stroke="none">
<path d="M19800 40950 c-4583 -161 -8905 -1810 -12415 -4736 -844 -704 -1705
-1549 -2411 -2369 -1862 -2162 -3242 -4654 -4074 -7355 -461 -1498 -753 -3084
-854 -4645 -34 -514 -40 -728 -40 -1365 0 -770 18 -1187 80 -1870 375 -4137
2002 -8045 4685 -11255 409 -488 719 -826 1229 -1336 540 -541 883 -855 1407
-1291 2254 -1875 4892 -3249 7700 -4012 2371 -644 4846 -856 7303 -625 3048
286 5974 1249 8610 2836 2757 1658 5132 3994 6832 6718 380 609 672 1132 993
1780 1641 3313 2339 6957 2049 10695 -238 3075 -1204 6114 -2792 8785 -738
1240 -1556 2339 -2562 3440 -368 403 -1092 1111 -1540 1505 -2452 2160 -5385
3706 -8530 4495 -1332 334 -2621 523 -4065 595 -283 14 -1301 20 -1605 10z
m1345 -2050 c981 -38 1886 -140 2805 -316 4480 -856 8502 -3371 11264 -7044
902 -1198 1628 -2453 2223 -3840 1220 -2843 1695 -5983 1378 -9110 -226 -2217
-855 -4372 -1860 -6365 -393 -778 -795 -1460 -1258 -2135 -1044 -1518 -2285
-2856 -3712 -3999 -1950 -1562 -4199 -2716 -6580 -3374 -1410 -390 -2797 -603
-4300 -658 -352 -13 -1225 -7 -1535 10 -1310 74 -2390 236 -3593 537 -2085
524 -4115 1440 -5887 2657 -2477 1703 -4484 3945 -5891 6582 -1202 2256 -1920
4749 -2103 7310 -35 479 -41 682 -41 1325 0 643 6 846 41 1325 400 5597 3329
10685 7994 13892 2128 1462 4611 2480 7140 2927 923 163 1661 240 2675 279
197 8 1013 6 1240 -3z"/>
<path d="M12160 21481 c-302 -64 -560 -263 -700 -541 -302 -599 48 -1326 705
-1461 87 -18 332 -19 8315 -19 8017 0 8227 1 8316 19 239 49 457 188 605 383
360 479 241 1153 -261 1477 -110 71 -218 116 -345 142 -87 18 -323 19 -8320
18 -7877 0 -8234 -1 -8315 -18z"/>
</g>
</svg>
