<?xml version="1.0" standalone="no"?>
<!DOCTYPE svg PUBLIC "-//W3C//DTD SVG 20010904//EN"
 "http://www.w3.org/TR/2001/REC-SVG-20010904/DTD/svg10.dtd">
<svg version="1.0" xmlns="http://www.w3.org/2000/svg"
 width="980.000000pt" height="980.000000pt" viewBox="0 0 980.000000 980.000000"
 preserveAspectRatio="xMidYMid meet">

<g transform="translate(0.000000,980.000000) scale(0.100000,-0.100000)"
fill="#000000" stroke="none">
<path d="M1690 9794 c-14 -2 -65 -9 -115 -15 -452 -56 -907 -322 -1196 -701
-211 -276 -334 -590 -369 -943 -8 -78 -10 -1033 -8 -3310 l4 -3200 22 -110
c143 -729 668 -1289 1367 -1459 219 -54 31 -51 3520 -51 3083 0 3255 1 3345
18 401 76 731 246 1001 516 274 276 446 609 516 1006 17 94 18 280 18 3350 0
3089 -1 3255 -18 3357 -66 391 -240 730 -517 1009 -261 263 -580 430 -973 512
l-102 21 -3235 2 c-1779 1 -3246 0 -3260 -2z m6425 -1239 c215 -56 381 -224
443 -448 16 -58 17 -266 17 -3217 l0 -3155 -27 -81 c-28 -83 -79 -171 -137
-237 -51 -57 -173 -133 -264 -164 l-82 -28 -3165 0 -3165 0 -81 27 c-183 63
-329 203 -396 381 l-23 62 -3 3179 c-2 3503 -7 3227 59 3361 56 114 159 216
277 275 128 63 -133 59 3327 59 2818 1 3167 -1 3220 -14z"/>
<path d="M2450 6735 l0 -615 2450 0 2450 0 0 615 0 615 -2450 0 -2450 0 0
-615z"/>
<path d="M2450 4900 l0 -610 2450 0 2450 0 0 610 0 610 -2450 0 -2450 0 0
-610z"/>
<path d="M2450 3060 l0 -610 2450 0 2450 0 0 610 0 610 -2450 0 -2450 0 0
-610z"/>
</g>
</svg>
