<?xml version="1.0" standalone="no"?>
<!DOCTYPE svg PUBLIC "-//W3C//DTD SVG 20010904//EN"
 "http://www.w3.org/TR/2001/REC-SVG-20010904/DTD/svg10.dtd">
<svg version="1.0" xmlns="http://www.w3.org/2000/svg"
 width="980.000000pt" height="980.000000pt" viewBox="0 0 980.000000 980.000000"
 preserveAspectRatio="xMidYMid meet">

<g transform="translate(0.000000,980.000000) scale(0.100000,-0.100000)"
fill="#000000" stroke="none">
<path d="M6372 9318 l3 -483 873 -5 872 -5 -1250 -1250 c-687 -687 -1250
-1255 -1250 -1260 0 -13 682 -695 695 -695 6 0 573 563 1260 1250 l1250 1250
5 -872 5 -873 483 -3 482 -2 0 1715 0 1715 -1715 0 -1715 0 2 -482z"/>
<path d="M2225 2930 l-1250 -1250 -5 872 -5 873 -483 3 -482 2 0 -1715 0
-1715 1715 0 1715 0 -2 483 -3 482 -875 3 -875 2 796 798 c1036 1038 1689
1702 1689 1718 0 7 -39 55 -87 106 -149 159 -577 588 -588 588 -5 0 -573 -563
-1260 -1250z"/>
</g>
</svg>
